<svg width="20" height="22" viewBox="0 0 20 22" fill="none" xmlns="http://www.w3.org/2000/svg">
<path d="M10.0001 6.41667C10.0001 5.44421 9.64889 4.51158 9.02377 3.82394C8.39865 3.13631 7.5508 2.75 6.66675 2.75H1.66675V16.5H7.50008C8.16312 16.5 8.79901 16.7897 9.26785 17.3055C9.73669 17.8212 10.0001 18.5207 10.0001 19.25M10.0001 6.41667V19.25M10.0001 6.41667C10.0001 5.44421 10.3513 4.51158 10.9764 3.82394C11.6015 3.13631 12.4494 2.75 13.3334 2.75H18.3334V16.5H12.5001C11.837 16.5 11.2012 16.7897 10.7323 17.3055C10.2635 17.8212 10.0001 18.5207 10.0001 19.25" stroke="#3A54FF" stroke-width="2" stroke-linecap="round" stroke-linejoin="round"/>
</svg>
